<?xml version="1.0" encoding="UTF-8"?>
<!DOCTYPE svg PUBLIC "-//W3C//DTD SVG 1.1//EN" "http://www.w3.org/Graphics/SVG/1.1/DTD/svg11.dtd">
<!-- Creator: CorelDRAW 2019 -->
<svg xmlns="http://www.w3.org/2000/svg" xml:space="preserve" width="210mm" height="210mm" version="1.1" style="shape-rendering:geometricPrecision; text-rendering:geometricPrecision; image-rendering:optimizeQuality; fill-rule:evenodd; clip-rule:evenodd"
viewBox="0 0 9254.69 9254.69"
 xmlns:xlink="http://www.w3.org/1999/xlink"
 xmlns:xodm="http://www.corel.com/coreldraw/odm/2003">
 <defs>
  <style type="text/css">
   <![CDATA[
    .fil0 {fill:none}
    .fil2 {fill:#070085}
    .fil4 {fill:#5046FE}
    .fil3 {fill:#758BF2}
    .fil1 {fill:#070085;fill-rule:nonzero}
   ]]>
  </style>
 </defs>
 <g id="Layer_x0020_1">
  <metadata id="CorelCorpID_0Corel-Layer"/>
  <rect class="fil0" x="-0" y="0" width="9254.69" height="9254.69"/>
  <g id="_815526872">
   <path class="fil1" d="M7966.48 7819.09l-193.98 0.31 -268.12 358.2 -264.96 -357.36 -189.66 0.3 354.25 489.41 -438.75 582.63 0 0 199.72 -0.31 339.82 -451.72 329.76 450.65 198.29 -0.31 -429.11 -581.25 362.74 -490.55zm-1146.62 1.82l-754.35 1.2 1.71 1071.9 156.62 -0.25 -0.69 -429.62c32.54,-17.3 66.05,-28.84 100.52,-34.64 33.52,-4.85 67.52,-7.3 102.01,-7.35l234.21 -0.37 -0.25 -159.49 -234.21 0.37c-35.45,0.05 -69.93,2.51 -103.45,7.35 -33.52,3.89 -66.55,15.44 -99.09,34.64l-0.52 -324.73 597.74 -0.95 -0.25 -158.05zm-1070.47 1.71l-153.74 0.24 1.71 1071.9 153.75 -0.25 -1.71 -1071.9zm-354.9 0.56l-912.41 1.45 0.25 158.06 382.21 -0.61 1.45 913.85 152.31 -0.24 -1.46 -913.85 377.9 -0.6 -0.25 -158.05zm-1113.57 1.77l-153.74 0.25 1.7 1071.9 153.75 -0.25 -1.71 -1071.9zm-354.91 0.56l-172.42 0.28 -367.85 897.19 -367.83 -896.02 -169.55 0.27 444.26 1071.2 185.36 -0.3 448.03 -1072.61zm-1278.8 2.04l-158.05 0.25 1.3 819.02 -689.56 -817.92 -202.6 0.33 125.25 150.67 1.47 921.03 153.74 -0.24 -1.17 -737.11 616.15 736.13 155.18 -0.25 -1.71 -1071.9zm-1271.63 2.02l-153.75 0.25 1.71 1071.9 153.74 -0.25 -1.71 -1071.9z"/>
   <g>
    <polygon class="fil2" points="1221.84,7699.68 6485.82,5259.39 7519.22,4835.09 7044.05,352.97 "/>
    <polygon class="fil3" points="7044.05,352.97 1221.84,7699.68 6017.06,4768.56 7749.79,7023.11 "/>
    <polygon class="fil4" points="7044.05,352.97 7499.3,4655.64 6402.84,3067.22 3185.03,5222.46 "/>
   </g>
  </g>
 </g>
</svg>
