<?xml version="1.0" encoding="UTF-8"?>
<!DOCTYPE svg PUBLIC "-//W3C//DTD SVG 1.1//EN" "http://www.w3.org/Graphics/SVG/1.1/DTD/svg11.dtd">
<!-- Creator: CorelDRAW 2019 -->
<svg xmlns="http://www.w3.org/2000/svg" xml:space="preserve" width="154.55mm" height="193.982mm" version="1.1" style="shape-rendering:geometricPrecision; text-rendering:geometricPrecision; image-rendering:optimizeQuality; fill-rule:evenodd; clip-rule:evenodd"
viewBox="0 0 5182.91 6505.28"
 xmlns:xlink="http://www.w3.org/1999/xlink"
 xmlns:xodm="http://www.corel.com/coreldraw/odm/2003">
 <defs>
  <style type="text/css">
   <![CDATA[
    .fil1 {fill:#070085}
    .fil3 {fill:#5046FE}
    .fil2 {fill:#758BF2}
    .fil0 {fill:#070085;fill-rule:nonzero}
   ]]>
  </style>
 </defs>
 <g id="Layer_x0020_1">
  <metadata id="CorelCorpID_0Corel-Layer"/>
  <g id="_816662320">
   <path class="fil0" d="M5132.42 5681.44l-147.61 0.23 -204.03 272.58 -201.62 -271.94 -144.33 0.23 269.57 372.42 -333.87 443.36 0 0 151.98 -0.24 258.59 -343.74 250.93 342.93 150.89 -0.24 -326.54 -442.31 276.03 -373.29zm-872.53 1.39l-574.04 0.91 1.3 815.68 119.18 -0.19 -0.52 -326.92c24.76,-13.16 50.26,-21.95 76.49,-26.36 25.51,-3.69 51.38,-5.55 77.62,-5.59l178.22 -0.28 -0.19 -121.37 -178.22 0.29c-26.97,0.04 -53.21,1.91 -78.72,5.59 -25.51,2.96 -50.64,11.75 -75.4,26.36l-0.39 -247.11 454.86 -0.72 -0.19 -120.27zm-814.59 1.3l-116.99 0.18 1.3 815.68 117 -0.19 -1.3 -815.68zm-270.07 0.43l-694.31 1.1 0.19 120.28 290.84 -0.46 1.11 695.4 115.9 -0.18 -1.11 -695.4 287.56 -0.46 -0.19 -120.27zm-847.38 1.35l-116.99 0.19 1.29 815.68 117 -0.19 -1.3 -815.68zm-270.07 0.43l-131.2 0.21 -279.92 682.73 -279.9 -681.84 -129.02 0.2 338.07 815.14 141.05 -0.23 340.93 -816.22zm-973.12 1.55l-120.27 0.19 0.99 623.24 -524.73 -622.41 -154.17 0.25 95.31 114.65 1.12 700.87 116.99 -0.18 -0.89 -560.92 468.87 560.17 118.09 -0.19 -1.3 -815.68zm-967.66 1.54l-117 0.19 1.3 815.68 116.99 -0.19 -1.3 -815.68z"/>
   <g>
    <polygon class="fil1" points="-0,5590.57 4005.69,3733.61 4792.07,3410.73 4430.48,0 "/>
    <polygon class="fil2" points="4430.48,0 -0,5590.57 3648.98,3360.1 4967.52,5075.73 "/>
    <polygon class="fil3" points="4430.48,0 4776.91,3274.17 3942.55,2065.45 1493.91,3705.5 "/>
   </g>
  </g>
 </g>
</svg>
