<?xml version="1.0" encoding="UTF-8"?>
<!DOCTYPE svg PUBLIC "-//W3C//DTD SVG 1.1//EN" "http://www.w3.org/Graphics/SVG/1.1/DTD/svg11.dtd">
<!-- Creator: CorelDRAW 2019 -->
<svg xmlns="http://www.w3.org/2000/svg" xml:space="preserve" width="639.219mm" height="166.706mm" version="1.1" style="shape-rendering:geometricPrecision; text-rendering:geometricPrecision; image-rendering:optimizeQuality; fill-rule:evenodd; clip-rule:evenodd"
viewBox="0 0 63920.82 16670.29"
 xmlns:xlink="http://www.w3.org/1999/xlink"
 xmlns:xodm="http://www.corel.com/coreldraw/odm/2003">
 <defs>
  <style type="text/css">
   <![CDATA[
    .fil1 {fill:#070085}
    .fil3 {fill:#5046FE}
    .fil2 {fill:#758BF2}
    .fil0 {fill:#070085;fill-rule:nonzero}
   ]]>
  </style>
 </defs>
 <g id="Layer_x0020_1">
  <metadata id="CorelCorpID_0Corel-Layer"/>
  <g id="_813725960">
   <path class="fil0" d="M63470.94 3731.06l-1353.84 -0.25 -1875.8 2496.74 -1844.77 -2497.43 -1323.76 -0.25 2466.38 3420.17 -3069.47 4060.94 1393.96 0.26 2377.33 -3148.49 2295.92 3149.37 1383.93 0.25 -2987.71 -4062.07 2537.83 -3419.24zm-8002.71 -1.48l-5264.94 -0.99 -1.39 7481.24 1093.1 0.2 0.56 -2998.5c227.33,-120.31 461.34,-200.5 702.04,-240.56 234.01,-33.38 471.35,-50.06 712.03,-50.01l1634.64 0.31 0.2 -1113.17 -1634.63 -0.3c-247.38,-0.04 -488.06,16.62 -722.07,50.01 -234,26.7 -464.67,106.88 -692.01,240.56l0.43 -2266.43 4171.84 0.77 0.2 -1103.12zm-7471.22 -1.39l-1073.03 -0.2 -1.39 7481.23 1073.04 0.2 1.38 -7481.23zm-2477.02 -0.47l-6368.07 -1.18 -0.2 1103.14 2667.57 0.48 -1.18 6378.1 1063.01 0.2 1.18 -6378.09 2637.49 0.49 0.21 -1103.14zm-7772.05 -1.44l-1073.05 -0.19 -1.39 7481.22 1073.03 0.2 1.41 -7481.23zm-2477.04 -0.46l-1203.42 -0.23 -2578.48 6257.29 -2556.09 -6258.24 -1183.36 -0.22 3087.39 7481.81 1293.66 0.24 3140.3 -7480.65zm-8925.33 -1.66l-1103.12 -0.2 -1.07 5716.23 -4802.56 -5717.13 -1414.02 -0.26 872.29 1053.15 -1.2 6428.24 1073.04 0.2 0.96 -5144.6 4291.22 5145.4 1083.08 0.2 1.38 -7481.24zm-8875.18 -1.65l-1073.04 -0.2 -1.4 7481.23 1073.05 0.21 1.39 -7481.24z"/>
   <g>
    <polygon class="fil1" points="-0,16670.29 11944.4,11133.09 14289.27,10170.3 13211.06,0 "/>
    <polygon class="fil2" points="13211.06,0 -0,16670.29 10880.74,10019.34 14812.45,15135.11 "/>
    <polygon class="fil3" points="13211.06,0 14244.06,9763.12 11756.12,6158.87 4454.63,11049.28 "/>
   </g>
  </g>
 </g>
</svg>
